# Blender v2.79 (sub 6) OBJ File: 'skybox.blend'
# www.blender.org
mtllib skybox.mtl
o Cube
v 1.000000 -1.000000 -1.000000
v 1.000000 -1.000000 1.000000
v -1.000000 -1.000000 1.000000
v -1.000000 -1.000000 -1.000000
v 1.000000 1.000000 -0.999999
v 0.999999 1.000000 1.000001
v -1.000000 1.000000 1.000000
v -1.000000 1.000000 -1.000000
vt 0.749860 1.000163
vt 0.750000 0.500002
vt 0.500000 0.500003
vt 0.500000 0.999999
vt 0.999929 0.000071
vt 0.749965 0.000071
vt 1.000006 0.500002
vt 0.500000 0.000071
vt 0.250035 0.000071
vt 0.250035 0.500081
vt 0.000000 0.500001
vt 0.000071 0.000071
vn 0.0000 -1.0000 0.0000
vn -1.0000 -0.0000 -0.0000
vn 0.0000 0.0000 -1.0000
vn 1.0000 0.0000 0.0000
vn -0.0000 -0.0000 1.0000
usemtl Material
s off
f 5/1/1 6/2/1 7/3/1 8/4/1
f 1/5/2 2/6/2 6/2/2 5/7/2
f 2/6/3 3/8/3 7/3/3 6/2/3
f 3/8/4 4/9/4 8/10/4 7/3/4
f 5/11/5 8/10/5 4/9/5 1/12/5
